<svg xmlns="http://www.w3.org/2000/svg" viewBox="0 0 833.74 727.34"><title>Middel 1</title><g id="Laag_2" data-name="Laag 2"><g id="BAND"><path d="M659.74,0a174,174,0,1,0,174,174A174,174,0,0,0,659.74,0Zm0,309a135,135,0,1,1,135-135A135,135,0,0,1,659.74,309Z"/><path d="M659.74,71a103,103,0,1,0,103,103A103,103,0,0,0,659.74,71Zm0,172a69,69,0,1,1,69-69A69,69,0,0,1,659.74,243Z"/></g><g id="Laag_3" data-name="Laag 3"><path d="M447.74,34c-2-8-6-18-27-13s-38,9-185,44-205,95.13-227,122c-13.5,16.5-9.5,20.5-.5,29.5s15,3,24-6c21.69-21.69,46.19-43.11,82.67-62.61-5.82,36-20.87,129-25.67,158.61-1.13,7-4.3,20.32,0,24a207.77,207.77,0,0,0,20,15c5.58,3.72,10,2,12-9,1.76-9.67,26.68-168.37,32.7-206.7,25.69-10.33,56.22-19.86,93.3-28.3,123-28,160.5-36.5,183.5-41.5S449.74,42,447.74,34Z"/><path d="M221.74,240c1-9,3-22,14-12s9,9,14,14,6,5,4,18-18.86,103.22-29,153c-11,54-63,112-99,94s-45.5-63.5-22.5-105.5,46-53,53-57,10-2,14,3,7,8,10,12,7,8,0,14-28,19-43,42-19,49-6,58,45-9,58-58,19-82,19-82c-7,2-18,5-32-6s-21.7-33.09-17-66c3-21,5-30,9-39,2.72-6.13,5-9,9-5s9.5,11.5,12,15c2,2.88,2.5,6.5,1,12a174.37,174.37,0,0,0-5,26c-.67,6.67-3,20,4,25s20,2,25-18S220.74,249,221.74,240Z"/><path d="M272.74,226c-4,22-7.74,48-9,55-2,11-3,14,0,19s5,7,11,14,13,8,17-9,9-46,9-46c4-8,11.23-24.25,20-26,10-2,15,9,17,12s9,6,11-4,2-12,3-17,1-6-2-12-9-19-25-19-24,9-33,26l-2-2-4-4c-2-2-8-2-10,3A38.65,38.65,0,0,0,272.74,226Z"/><path d="M430.24,253.5c-7.28,3-18.33,9.19-25,12-19,8-23-4-22-10,0,0,13.45,6.31,40-12,29-20,41-59,29-74s-62.5-14.5-86.5,49.5-2,82,19,82,44-16,59-35C453.47,253.68,447.24,246.5,430.24,253.5Zm-22-53c7.6-6.34,11.76-7.24,14-5,2,2-.29,8.73-7,16-12,13-22,13-22,13C398.24,211.5,402.24,205.5,408.24,200.5Z"/><path d="M626.74,457c1-9,3-22,14-12s9,9,14,14,6,5,4,18-18.86,103.22-29,153c-11,54-63,112-99,94s-45.5-63.5-22.5-105.5,46-53,53-57,10-2,14,3,7,8,10,12,7,8,0,14-28,19-43,42-19,49-6,58,45-9,58-58,19-82,19-82c-7,2-18,5-32-6s-21.7-33.09-17-66c3-21,5-30,9-39,2.72-6.13,5-9,9-5s9.5,11.5,12,15c2,2.88,2.5,6.5,1,12a174.37,174.37,0,0,0-5,26c-.67,6.67-3,20,4,25s20,2,25-18S625.74,466,626.74,457Z"/><path d="M537.7,555.4c7-36,9.89-59.94,11-67.4,2-13,1-13-4-18s-3-4-14-14-13,3-14,12-2.5,17.5-7.5,37.5-18,23-25,18-4.67-18.33-4-25a174.37,174.37,0,0,1,5-26c1.5-5.5,1.05-9.12-1-12-2.5-3.5-8-11-12-15s-6.28-1.13-9,5c-4,9-6,18-9,39-4.7,32.91,3,55,17,66s28.5,6.5,40,0a38.37,38.37,0,0,0,14,8C534.24,566.5,536.16,563.29,537.7,555.4Z"/><path d="M804.12,449.7c-2.29-22.34-22.43-32.45-26.28-34.55-5.92-3.23-7.08-3.69-11.45-5.78s-11.31-4.11-18.07-5.95l-23.15-6.31-2.11-3.68c-1.4-2.46-7.19-4-10.44.27a38.81,38.81,0,0,0-5.52,8.86c-9.64,20.17-24.71,68-27.76,74.35-4.82,10.09-6.57,12.72-5,18.33s3,8.07,6.94,16.4,10.44,11.14,18.76-4.22,29.86-82.07,29.86-82.07l10.62,2.89a102.44,102.44,0,0,1,15.17,5.17c3.75,1.72,11.92,6.22,15.27,12.45,2.77,5.14,4.77,8.14,4,15.61-1.13,11.65-13.27,26.53-28,26.58-18.38.07-17.3,10.95-6.22,15.34A47.31,47.31,0,0,0,763.56,506C790.57,502.66,806.92,476.89,804.12,449.7Z"/><path d="M355.74,376c28-4,44.36,6.75,64,22.93,11,9.07,21,3.07,16.33-10.17C421.82,348.48,383.74,334,345.59,339c-36.43,4.74-104.85,34-95.88,145.43,5,62.31,46,101.6,90.63,108.35,51.88,7.86,85.74-18.78,95.5-67.83,2.22-11.18,2.3-32.1,2.53-40.74.37-14.18-3.16-21.36-18.65-20.38-19,1.2-32,2.2-58.9,4.22-10.06.76-14.08,0-15.68,5.11s-3.22,11.25-4,14.32c-2,7.61-1.25,14.27,7,13.54,22.65-2,29.65-4,46.73-6.24,7.59-1,6.57,16.87,3.69,26.77-5.66,19.44-22.11,34.62-52.13,28.71-31.64-6.23-45.86-42-50-69.68C288.74,429,308.6,382.73,355.74,376Z"/></g></g></svg>